<svg width="42" height="42" viewBox="0 0 42 42" fill="none" xmlns="http://www.w3.org/2000/svg">
  <path d="M21 3.9375C17.6254 3.9375 14.3265 4.9382 11.5206 6.81305C8.71468 8.6879 6.52773 11.3527 5.23631 14.4705C3.94489 17.5882 3.607 21.0189 4.26536 24.3287C4.92372 27.6385 6.54876 30.6788 8.935 33.065C11.3212 35.4512 14.3615 37.0763 17.6713 37.7346C20.9811 38.393 24.4118 38.0551 27.5295 36.7637C30.6473 35.4723 33.3121 33.2853 35.187 30.4794C37.0618 27.6735 38.0625 24.3746 38.0625 21C38.0577 16.4762 36.2585 12.1391 33.0597 8.94027C29.8609 5.74146 25.5238 3.94228 21 3.9375ZM21 35.4375C18.1445 35.4375 15.3532 34.5908 12.979 33.0043C10.6047 31.4179 8.75424 29.1631 7.6615 26.525C6.56876 23.8869 6.28285 20.984 6.83992 18.1834C7.39699 15.3828 8.77203 12.8103 10.7912 10.7911C12.8103 8.77203 15.3828 7.39699 18.1834 6.83991C20.984 6.28284 23.8869 6.56875 26.525 7.66149C29.1631 8.75423 31.4179 10.6047 33.0043 12.979C34.5908 15.3532 35.4375 18.1445 35.4375 21C35.4332 24.8277 33.9107 28.4974 31.2041 31.2041C28.4974 33.9107 24.8277 35.4332 21 35.4375ZM27.1786 18.7589C27.3005 18.8808 27.3973 19.0256 27.4633 19.1849C27.5293 19.3443 27.5632 19.515 27.5632 19.6875C27.5632 19.86 27.5293 20.0307 27.4633 20.1901C27.3973 20.3494 27.3005 20.4941 27.1786 20.6161C27.0567 20.738 26.9119 20.8348 26.7526 20.9008C26.5932 20.9668 26.4225 21.0007 26.25 21.0007C26.0775 21.0007 25.9068 20.9668 25.7475 20.9008C25.5881 20.8348 25.4434 20.738 25.3214 20.6161L22.3125 17.6055V27.5625C22.3125 27.9106 22.1742 28.2444 21.9281 28.4906C21.6819 28.7367 21.3481 28.875 21 28.875C20.6519 28.875 20.3181 28.7367 20.0719 28.4906C19.8258 28.2444 19.6875 27.9106 19.6875 27.5625V17.6055L16.6786 20.6161C16.4323 20.8624 16.0983 21.0007 15.75 21.0007C15.4017 21.0007 15.0677 20.8624 14.8214 20.6161C14.5751 20.3698 14.4368 20.0358 14.4368 19.6875C14.4368 19.3392 14.5751 19.0052 14.8214 18.7589L20.0714 13.5089C20.1933 13.3869 20.3381 13.2901 20.4974 13.224C20.6567 13.158 20.8275 13.124 21 13.124C21.1725 13.124 21.3433 13.158 21.5026 13.224C21.662 13.2901 21.8067 13.3869 21.9286 13.5089L27.1786 18.7589Z" fill="#353535"/>
</svg>
