<svg xmlns="http://www.w3.org/2000/svg" width="820" height="112" viewBox="0 0 820 112" role="img" aria-labelledby="title desc">
  <title id="title">ТЭКПРО</title>
  <desc id="desc">Светлый логотип ТЭКПРО для тёмного фона</desc>
  <g fill="none" stroke-linecap="butt" stroke-linejoin="round" stroke-width="9">
    <path d="M4 58h184" stroke="#0093DD"/>
    <path d="M7 8c39 0 25 96 66 96h115" stroke="#FFFFFF"/>
    <path d="M35 8c39 0 25 96 66 96h87" stroke="#0093DD"/>
    <path d="M63 8c39 0 25 96 66 96h59" stroke="#FFFFFF"/>
    <path d="M91 8c39 0 25 96 66 96h31" stroke="#0093DD"/>
  </g>
  <g fill="#0093DD">
    <path d="M210 16h86v12h-34v50h-18V28h-34z"/>
    <path d="M306 16h65c19 0 29 10 29 27v8c0 17-10 27-29 27h-65V66h64c8 0 12-5 12-13V41c0-8-4-13-12-13h-46v11h46v12h-46v4h-18z"/>
    <path d="M410 16h18v24l48-24h28l-57 29 58 33h-29l-48-27v27h-18z"/>
  </g>
  <g fill="#FFFFFF">
    <path d="M514 16h91v62h-18V28h-55v50h-18z"/>
    <path fill-rule="evenodd" d="M618 16h64c19 0 29 10 29 27v3c0 17-10 27-29 27h-46v5h-18zm18 12v33h44c9 0 13-5 13-14v-5c0-9-4-14-13-14z"/>
    <path fill-rule="evenodd" d="M742 16h49c18 0 27 10 27 29v4c0 19-9 29-27 29h-49c-18 0-27-10-27-29v-4c0-19 9-29 27-29zm3 12c-9 0-13 5-13 16v6c0 11 4 16 13 16h43c9 0 13-5 13-16v-6c0-11-4-16-13-16z"/>
  </g>
  <text x="210" y="102" fill="#FFFFFF" font-family="Montserrat, Arial, sans-serif" font-size="14" font-weight="700" letter-spacing=".35" textLength="606" lengthAdjust="spacingAndGlyphs">ГЕОТЕХНИКА • ИНЖИНИРИНГ • КОНСАЛТИНГ</text>
</svg>
